<?xml version="1.0" standalone="no"?>
<!DOCTYPE svg PUBLIC "-//W3C//DTD SVG 20010904//EN"
 "http://www.w3.org/TR/2001/REC-SVG-20010904/DTD/svg10.dtd">
<svg version="1.0" xmlns="http://www.w3.org/2000/svg"
 width="396.000000pt" height="396.000000pt" viewBox="0 0 396.000000 396.000000"
 preserveAspectRatio="xMidYMid meet">

<g transform="translate(0.000000,396.000000) scale(0.100000,-0.100000)"
fill="#000000" stroke="none">
<path d="M1553 1237 c1 -45 -3 -59 -17 -48 -10 9 -15 8 -19 -3 -7 -17 16 -28
38 -20 8 4 15 2 15 -4 0 -5 -15 -9 -32 -8 -37 2 -82 -30 -73 -52 3 -10 0 -12
-10 -8 -9 3 -20 -3 -27 -14 -7 -11 -18 -20 -25 -20 -7 0 -15 -12 -18 -27 -3
-16 -15 -64 -27 -107 -12 -43 -21 -85 -21 -92 0 -8 -4 -14 -9 -14 -19 0 -5
-31 31 -67 78 -77 101 -94 112 -87 7 4 9 3 6 -4 -9 -14 99 -81 193 -119 94
-38 190 -60 300 -68 l85 -6 -40 32 c-56 46 -121 114 -168 178 -43 59 -123 220
-133 269 -4 18 -12 36 -19 42 -7 6 -11 20 -8 30 3 11 2 28 -2 37 -9 21 -15 64
-16 113 -1 32 -1 33 -9 10 l-8 -25 -1 24 c-1 23 -2 23 -19 8 -10 -10 -22 -14
-26 -10 -4 4 -11 1 -16 -7 -7 -11 -11 -3 -16 28 -6 39 -22 69 -21 39z m-143
-201 c0 -3 -4 -8 -10 -11 -5 -3 -10 -1 -10 4 0 6 5 11 10 11 6 0 10 -2 10 -4z"/>
<path d="M1752 1160 c0 -14 2 -19 5 -12 2 6 2 18 0 25 -3 6 -5 1 -5 -13z"/>
<path d="M1760 1110 c0 -19 3 -21 12 -12 9 9 9 15 0 24 -9 9 -12 7 -12 -12z"/>
<path d="M1800 1120 c-7 -32 -7 -40 3 -40 7 0 -1 -10 -17 -23 -26 -21 -28 -27
-21 -66 5 -31 10 -39 16 -30 6 10 9 4 9 -19 0 -39 42 -137 73 -170 12 -13 21
-27 19 -30 -4 -12 68 -100 128 -155 85 -79 143 -110 188 -103 71 12 132 30
132 38 0 4 11 8 25 8 26 0 48 31 28 37 -6 2 -9 12 -6 22 7 26 -35 86 -69 99
-16 6 -28 17 -27 24 3 19 -19 68 -31 68 -5 0 -10 13 -10 28 0 29 -30 52 -65
52 -8 0 -15 7 -15 15 0 8 8 15 17 15 14 0 15 2 4 13 -11 10 -14 10 -18 0 -6
-18 -28 -16 -43 2 -7 8 -20 15 -29 15 -9 0 -22 14 -30 30 -11 27 -17 30 -49
28 -29 -2 -38 1 -48 21 -14 28 -40 45 -54 36 -6 -3 -13 1 -16 10 -5 13 -9 13
-24 -5 -19 -22 -36 -28 -24 -8 5 8 2 9 -9 5 -16 -6 -22 7 -18 41 2 12 -17 52
-19 42z m-15 -110 c3 -5 1 -10 -4 -10 -6 0 -11 5 -11 10 0 6 2 10 4 10 3 0 8
-4 11 -10z m425 -186 c0 -14 -3 -14 -15 -4 -8 7 -15 14 -15 16 0 2 7 4 15 4 8
0 15 -7 15 -16z"/>
<path d="M1854 1078 c-3 -4 11 -8 30 -8 20 0 36 2 36 4 0 8 -61 12 -66 4z"/>
<path d="M1256 657 c-27 -56 -50 -118 -51 -137 -2 -19 -3 -38 -4 -41 -1 -4
-10 -9 -21 -12 -36 -9 -22 -25 14 -17 19 4 37 6 40 3 2 -3 22 7 43 21 l38 26
-33 0 c-17 0 -32 5 -32 10 0 16 50 32 80 25 31 -7 139 51 140 74 0 8 -3 12 -6
8 -6 -6 -64 43 -124 105 l-35 36 -49 -101z"/>
<path d="M1456 551 c-48 -34 -48 -35 -25 -44 61 -25 186 -91 206 -110 34 -30
20 -32 -24 -3 -41 27 -169 80 -219 90 -25 6 -43 -2 -115 -48 -81 -54 -91 -68
-32 -45 39 15 142 20 164 8 22 -11 25 -34 7 -46 -7 -4 -42 -10 -78 -13 -49 -4
-65 -9 -65 -20 0 -23 46 -23 109 -1 67 23 85 11 20 -14 -100 -38 -189 -18
-156 36 18 28 14 30 -33 19 -22 -5 -48 -10 -57 -10 -26 0 -22 27 7 46 30 20
27 27 -7 19 -18 -5 -29 -19 -42 -56 -22 -60 -27 -55 114 -125 l95 -46 42 22
c24 13 43 27 43 31 0 5 6 9 14 9 8 0 52 17 98 38 166 77 330 118 506 129 63 3
108 9 100 13 -7 4 -65 10 -128 13 -143 8 -274 40 -400 99 l-95 44 -49 -35z"/>
<path d="M2405 550 c-3 -6 1 -7 9 -4 18 7 21 14 7 14 -6 0 -13 -4 -16 -10z"/>
<path d="M2480 520 c0 -5 5 -10 11 -10 5 0 7 5 4 10 -3 6 -8 10 -11 10 -2 0
-4 -4 -4 -10z"/>
<path d="M2395 490 c-8 -13 5 -13 25 0 13 8 13 10 -2 10 -9 0 -20 -4 -23 -10z"/>
<path d="M2455 490 c-3 -5 3 -10 15 -10 12 0 18 5 15 10 -3 6 -10 10 -15 10
-5 0 -12 -4 -15 -10z"/>
<path d="M2326 468 c4 -6 3 -8 -4 -4 -6 3 -29 3 -52 0 -34 -6 -38 -9 -28 -21
6 -8 20 -12 30 -10 10 3 16 2 13 -3 -5 -9 122 -40 163 -40 l25 0 -26 20 c-14
11 -35 20 -46 20 -12 0 -20 6 -18 13 1 6 -3 11 -10 10 -7 -2 -10 4 -7 12 5 11
-1 15 -21 15 -17 0 -24 -4 -19 -12z m41 -44 c-3 -3 -12 -4 -19 -1 -8 3 -5 6 6
6 11 1 17 -2 13 -5z"/>
<path d="M1350 377 c-25 -7 -30 -11 -17 -15 25 -5 67 6 67 18 0 12 -4 12 -50
-3z"/>
</g>
</svg>
